<svg width="275" height="56" viewBox="0 0 275 56" fill="none" xmlns="http://www.w3.org/2000/svg">
<path d="M270.479 37.8311C269.297 37.8311 268.325 37.4583 267.563 36.7128C266.827 35.9386 266.459 34.9923 266.459 33.8741C266.459 32.7271 266.827 31.7665 267.563 30.9923C268.325 30.2182 269.297 29.8311 270.479 29.8311C271.635 29.8311 272.581 30.2182 273.317 30.9923C274.079 31.7665 274.459 32.7271 274.459 33.8741C274.459 34.9923 274.079 35.9386 273.317 36.7128C272.581 37.4583 271.635 37.8311 270.479 37.8311Z" fill="#010535"/>
<path d="M261.772 25.2538C261.772 25.9196 261.73 26.6132 261.647 27.3345H245.543C245.654 28.777 246.112 29.8867 246.916 30.6635C247.748 31.4125 248.761 31.787 249.954 31.787C251.729 31.787 252.964 31.038 253.657 29.5399H261.231C260.842 31.0657 260.135 32.4389 259.109 33.6596C258.11 34.8802 256.848 35.8373 255.322 36.5308C253.796 37.2244 252.09 37.5712 250.203 37.5712C247.929 37.5712 245.904 37.0857 244.128 36.1147C242.353 35.1438 240.966 33.7567 239.967 31.9535C238.968 30.1502 238.469 28.0419 238.469 25.6283C238.469 23.2148 238.954 21.1065 239.925 19.3032C240.924 17.5 242.311 16.1129 244.086 15.142C245.862 14.171 247.901 13.6855 250.203 13.6855C252.451 13.6855 254.448 14.1572 256.196 15.1004C257.943 16.0436 259.303 17.3891 260.274 19.1368C261.272 20.8845 261.772 22.9235 261.772 25.2538ZM254.49 23.3813C254.49 22.1606 254.073 21.1897 253.241 20.4684C252.409 19.7471 251.369 19.3865 250.12 19.3865C248.927 19.3865 247.915 19.7332 247.083 20.4268C246.278 21.1203 245.779 22.1052 245.585 23.3813H254.49Z" fill="white"/>
<path d="M235.92 31.2047V37.2385H232.3C229.72 37.2385 227.709 36.6143 226.266 35.3659C224.823 34.0898 224.102 32.023 224.102 29.1656V19.9277H221.272V14.0187H224.102V8.35938H231.218V14.0187H235.878V19.9277H231.218V29.2489C231.218 29.9424 231.384 30.4418 231.717 30.7469C232.05 31.0521 232.605 31.2047 233.382 31.2047H235.92Z" fill="white"/>
<path d="M193.321 25.5867C193.321 23.201 193.765 21.1065 194.652 19.3032C195.568 17.5 196.802 16.1129 198.356 15.142C199.909 14.171 201.643 13.6855 203.557 13.6855C205.194 13.6855 206.623 14.0184 207.844 14.6842C209.092 15.35 210.049 16.2239 210.715 17.3058V14.0184H217.831V37.2383H210.715V33.9509C210.021 35.0328 209.05 35.9067 207.802 36.5725C206.581 37.2383 205.153 37.5712 203.516 37.5712C201.629 37.5712 199.909 37.0857 198.356 36.1147C196.802 35.116 195.568 33.7151 194.652 31.9118C193.765 30.0809 193.321 27.9725 193.321 25.5867ZM210.715 25.6283C210.715 23.8529 210.216 22.4519 209.217 21.4255C208.246 20.399 207.053 19.8858 205.638 19.8858C204.223 19.8858 203.017 20.399 202.018 21.4255C201.047 22.4242 200.561 23.8113 200.561 25.5867C200.561 27.3622 201.047 28.777 202.018 29.8312C203.017 30.8577 204.223 31.3709 205.638 31.3709C207.053 31.3709 208.246 30.8577 209.217 29.8312C210.216 28.8048 210.715 27.4038 210.715 25.6283Z" fill="white"/>
<path d="M184.052 17.8882C184.885 16.6121 185.925 15.6134 187.173 14.8921C188.422 14.1431 189.809 13.7686 191.334 13.7686V21.3004H189.379C187.603 21.3004 186.272 21.6888 185.384 22.4656C184.496 23.2146 184.052 24.5462 184.052 26.4604V37.238H176.937V14.0182H184.052V17.8882Z" fill="white"/>
<path d="M155.809 17.3058C156.503 16.2239 157.46 15.35 158.681 14.6842C159.901 14.0184 161.33 13.6855 162.967 13.6855C164.881 13.6855 166.615 14.171 168.168 15.142C169.722 16.1129 170.942 17.5 171.83 19.3032C172.746 21.1065 173.203 23.201 173.203 25.5867C173.203 27.9725 172.746 30.0809 171.83 31.9118C170.942 33.7151 169.722 35.116 168.168 36.1147C166.615 37.0857 164.881 37.5712 162.967 37.5712C161.358 37.5712 159.929 37.2383 158.681 36.5725C157.46 35.9067 156.503 35.0467 155.809 33.9925V48.3072H148.694V14.0184H155.809V17.3058ZM165.963 25.5867C165.963 23.8113 165.463 22.4242 164.465 21.4255C163.494 20.399 162.287 19.8858 160.844 19.8858C159.43 19.8858 158.223 20.399 157.224 21.4255C156.253 22.4519 155.768 23.8529 155.768 25.6283C155.768 27.4038 156.253 28.8048 157.224 29.8312C158.223 30.8577 159.43 31.3709 160.844 31.3709C162.259 31.3709 163.466 30.8577 164.465 29.8312C165.463 28.777 165.963 27.3622 165.963 25.5867Z" fill="white"/>
<path d="M138.01 17.8882C138.843 16.6121 139.883 15.6134 141.131 14.8921C142.38 14.1431 143.767 13.7686 145.292 13.7686V21.3004H143.337C141.561 21.3004 140.23 21.6888 139.342 22.4656C138.454 23.2146 138.01 24.5462 138.01 26.4604V37.238H130.895V14.0182H138.01V17.8882Z" fill="white"/>
<path d="M114.969 37.5712C112.694 37.5712 110.641 37.0857 108.81 36.1147C107.007 35.1438 105.578 33.7567 104.524 31.9535C103.497 30.1502 102.984 28.0419 102.984 25.6283C102.984 23.2426 103.511 21.1481 104.566 19.3449C105.62 17.5139 107.062 16.1129 108.893 15.142C110.724 14.171 112.777 13.6855 115.052 13.6855C117.327 13.6855 119.38 14.171 121.211 15.142C123.042 16.1129 124.484 17.5139 125.538 19.3449C126.592 21.1481 127.12 23.2426 127.12 25.6283C127.12 28.0141 126.579 30.1225 125.497 31.9535C124.442 33.7567 122.986 35.1438 121.127 36.1147C119.296 37.0857 117.243 37.5712 114.969 37.5712ZM114.969 31.4125C116.328 31.4125 117.479 30.9131 118.423 29.9144C119.393 28.9157 119.879 27.487 119.879 25.6283C119.879 23.7697 119.407 22.341 118.464 21.3423C117.549 20.3436 116.411 19.8442 115.052 19.8442C113.665 19.8442 112.514 20.3436 111.598 21.3423C110.683 22.3132 110.225 23.7419 110.225 25.6283C110.225 27.487 110.669 28.9157 111.556 29.9144C112.472 30.9131 113.609 31.4125 114.969 31.4125Z" fill="white"/>
<path d="M71.4952 22.5907C71.4952 19.7055 72.1194 17.1394 73.3678 14.8923C74.6162 12.6175 76.35 10.8559 78.5694 9.60754C80.8165 8.33142 83.3548 7.69336 86.1845 7.69336C89.6522 7.69336 92.6205 8.60884 95.0896 10.4398C97.5586 12.2707 99.2092 14.7675 100.041 17.93H92.2183C91.6357 16.7094 90.8035 15.7801 89.7215 15.142C88.6674 14.5039 87.4606 14.1849 86.1012 14.1849C83.9097 14.1849 82.1342 14.9478 80.7748 16.4736C79.4155 17.9994 78.7358 20.0384 78.7358 22.5907C78.7358 25.1429 79.4155 27.1819 80.7748 28.7077C82.1342 30.2335 83.9097 30.9964 86.1012 30.9964C87.4606 30.9964 88.6674 30.6774 89.7215 30.0393C90.8035 29.4012 91.6357 28.4719 92.2183 27.2513H100.041C99.2092 30.4138 97.5586 32.9106 95.0896 34.7415C92.6205 36.5447 89.6522 37.4463 86.1845 37.4463C83.3548 37.4463 80.8165 36.8221 78.5694 35.5738C76.35 34.2976 74.6162 32.5361 73.3678 30.289C72.1194 28.0419 71.4952 25.4758 71.4952 22.5907Z" fill="white"/>
<path d="M28.4538 26.5283C29.951 22.8476 34.7034 14.0143 47.4802 7.83976C36.7352 -2.30076 20.0597 -2.19935 9.46277 7.73087C18.1021 11.6173 25.1723 17.5612 28.4538 26.5283ZM39.6873 6.563L40.5401 7.01421C35.6783 10.3522 32.1326 13.4459 28.482 18.8933C24.9533 13.3265 21.3761 10.2239 16.3707 6.95125L17.2592 6.49255C24.2478 2.88422 32.8023 2.92562 39.6873 6.563Z" fill="white"/>
<path d="M49.7961 10.2773C38.5538 15.2265 32.3182 22.2005 28.9827 33.5209L28.4479 35.337C25.3883 24.9511 21.1768 16.4747 7.09931 10.2773C2.93383 15.268 0.644531 21.5642 0.644531 28.0537C0.644531 41.7078 10.7056 53.4119 24.0644 55.5041C24.0644 53.1131 23.7767 44.2747 23.0917 40.7198C20.51 27.3341 15.3115 21.9954 9.53055 19.0039C4.58684 27.7365 8.00192 39.8861 17.2169 45.9256L16.6609 40.6984C11.9861 35.9528 10.1143 30.8591 10.9371 25.1337L11.0858 24.1022L11.8873 24.7683C18.638 30.3716 20.7741 42.2684 20.5987 51.0129L19.8241 50.7175C6.36212 45.5924 -0.971255 28.909 8.38233 14.7044C18.853 20.3006 26.8215 28.4874 26.8916 55.7423C27.12 55.7416 29.7015 55.7416 30.0042 55.7423C30.0743 28.4874 38.0429 20.3006 48.513 14.7044C57.8666 28.909 50.5336 45.5924 37.0714 50.7175L36.297 51.0129C36.1215 42.2682 38.2579 30.3716 45.008 24.7683L45.8097 24.1022L45.9588 25.1337C46.7817 30.8593 44.9096 35.9528 40.2351 40.6984L39.679 45.9256C48.894 39.8861 52.3091 27.7366 47.3653 19.0039C41.5839 21.9954 36.3855 27.3341 33.8038 40.7198C33.1188 44.2749 32.8311 53.1131 32.8311 55.5041C46.1898 53.4121 56.251 41.7078 56.251 28.0537C56.2508 21.5642 53.9617 15.2682 49.7961 10.2773Z" fill="white"/>
</svg>
